# xmcd
#
# Track frame offsets:
#	150
#	17679
#	37587
#	57321
#	72012
#	87521
#	106182
#
# Disc length: 1657 seconds
#
# Revision: 1
# Processed by: cddbd v1.5.2PL0 Copyright (c) Steve Scherf et al.
# Submitted via: audiograbber 1.83.01
#
DISCID=4b067707
DTITLE=Mustafa Sandal feat. Gentleman - Isyankar
DYEAR=1900
DGENRE=
TTITLE0=Beathoavenz Cut
TTITLE1=Nad
TTITLE2=Sabor De Amor
TTITLE3=beathovenz Real Mix
TTITLE4=Kingstone's Senorita Remix
TTITLE5=DJ Friction Club Mix
TTITLE6=Meltdown Mix
EXTD=
EXTT0=
EXTT1=
EXTT2=
EXTT3=
EXTT4=
EXTT5=
EXTT6=
PLAYORDER=
